<svg xmlns="http://www.w3.org/2000/svg" width="189" height="45" viewBox="0 0 189 45"><path fill-rule="evenodd" clip-rule="evenodd" d="M4.688 15.643c-3.926-3.674-3.559-6.87-2.167-9.432.444-.818.964-1.046 1.431-1.703.563-.794.648-1.504.16-1.927-.62-.539-2.041.084-2.837 1.541-4.158 7.621 3.413 11.521 3.413 11.521zm55.224 1.975c1.928-.272 4.087-.972 6.062-1.77l.03.1c.273.789.783 1.106 1.684 1.504 1.699.555 4.619-.141 6.37-1.469.027-.02.126-.145.196-.275l-.039-.047-.308.117-.013-.006c.22-.123.596-.513.62-.551l.057-.107c.029-.053-.007-.101-.061-.07-.404.238-1.012.487-1.275.59v-.014c1.056-.538 1.651-1.155 1.854-1.481.13-.223.181-.385-.015-.198-.42.401-1.358 1.13-3.092 1.737-1.577.552-3.14.384-3.301-1.03 1.318-.634 2.404-1.231 3.064-1.638 1.813-1.116 3.389-2.617 3.319-4.202.044-.493-.413-.951-1.349-1.121-1.484-.269-3.327.85-5.042 2.279-1.255 1.045-2.381 2.847-2.7 4.382-.946.346-1.887.605-2.877.81.375-.456.735-1.008 1.126-1.612.33-.509 1.079-1.718 1.955-3.14l.9-1.469 3.586-5.86c.213-.36.284-.557.329-.852.027-.17-.231-1.73-.249-1.95-.026-.323-.021-.525-.52.25-.309.481-1.734 2.733-3.407 5.313 0 0-1.243 1.908-1.872 2.859-.124-.266-.32-.48-.609-.567-1.697-.504-4.367.935-5.616 2.091-1.499 1.387-3.626 3.968-2.892 5.964.596 1.624 2.486 1.658 4.085 1.433zm11.808-7.608c.666-.392 1.232-.503 1.199-.219-.094.794-2.188 2.199-3.934 3.166.663-1.642 2.115-2.581 2.735-2.947zm-12.184 2.045c.475-.577 3.507-3.104 4.186-1.533-.021.032-1.324 2.133-2.836 4.224-.36.497-.825 1.041-1.959.818-.48-.115-.727-.39-.679-.92.056-.604.33-1.427 1.288-2.589zm42.16 13.074c-.539-3.389-5.112-2.218-7.219-.898l-.061-.029c-.047-.295-.361-.883-.985-.866-1.632.045-2.889.82-3.118 1.114-.235.303-.047.575.439.575h.746c-1.229 3.09-9.424 18.604-9.798 19.308-.178.336-.263.544-.282.664.231-.018.576-.066.863-.2l.121-.066c.091-.056.173-.122.237-.202.213-.265 1.284-1.873 1.593-2.34l.052-.011c-.073.252-.261.864-.47 1.285-.07.142-.101.29-.106.436l.047.023.533-.674.043.005.064.171c.008.024.017.093.1.031.308-.227.48-.441.731-.885.312-.549 2.898-5.194 5.056-8.984.111.729.448 1.416 1.217 1.701 1.536.569 3.434-.281 4.681-1.113 1.622-1.085 2.939-2.591 4-4.184.974-1.459 1.799-3.076 1.516-4.861zm-4.075 2.77c-.619 1.555-2.452 4.233-4.138 4.781-2.428.79-1.472-2.01-.933-2.99.951-1.728 2.466-4.173 4.416-4.581 1.385-.351 1.043 1.815.655 2.79zm91.257-11.958c-3.35 0-6.953.014-10.773.038 2.917-5.251 5.657-10.184 5.857-10.591.283-.574.283-.545.188-.967-.094-.423-.437-1.303-.533-1.694-.187-.771-.259-.544-.719.182-.293.458-4.24 6.956-7.902 13.093-8.885.068-18.842.183-29.484.304.178-.341.761-1.458 1.239-2.444.481-.993.956-2.082 1.094-2.402l-.008-.078c-.069.027-.2.102-.315.291-.076.125-.663 1.104-1.296 2.098-.604.949-1.246 1.918-1.46 2.24l-.011-.017c.176-.36.696-1.421 1.165-2.42.382-.813.719-1.589.85-1.901.096-.228.147-.416.171-.571l-.036-.018c-.014.015-.168.272-.435.663l-.014-.008c.163-.404.438-1.159.445-1.172l-.013-.017-.12.065-.225.203-.018-.017c.32-1.024.484-1.87.492-1.914.008-.045-.036-.084-.071-.061-.035.022-.599 1.519-2.125 4.195-.988 1.732-1.672 3.036-1.815 3.311-10.977.124-22.637.25-34.575.332-3.872 0-6.722.127-7.544.169l-.006.024 6.24.288s.456.04-.016.05c-2.882.063-13.173.289-13.657.3-.563.013-.916.046-.039.046h48.937c-.755 1.372-2.089 3.777-3.449 6.136-.186-.252-.43-.449-.741-.539-2.323-.673-5.71 1.246-7.236 2.786-.874.883-1.982 2.318-2.612 3.469-.354.647-1.221 2.128-2.451 2.843-1.023.596-2.223.468-2.223-.892 0-1.074 2.223-3.81 3.241-5.685.521-.959.797-1.515.819-1.832.026-.368-.162-.59-.459-.833-.408-.333-1.018-.375-1.676-.222-.657.153-3.052 1.498-5.605 3.915-.954.901-1.977 1.947-2.825 2.839.893-1.537 1.913-3.321 2.369-4.555.234-.635.401-.896.102-1.265-.206-.254-.781-.541-1.204-.674-.258-.082-.494-.032-.656.105-.108.092-.35.316-.941 1.04-.798.976-2.172 2.255-3.412 3.293.558-1.571.558-3.124-.768-4.139-.925-.708-2.503-.532-3.543-.252-1.984.534-3.674 1.854-4.99 3.336-1.696 1.91-4.959 6.583-1.603 8.578 2.55 1.517 6.083-.82 7.733-2.599.642-.693 1.543-1.805 2.273-3.045 1.315-.906 2.561-1.909 3.547-2.786-1.175 2.562-2.663 5.837-2.807 6.254-.181.525-.592 1.651-.561 2.215.031.565.772.736 1.555.736.781 0 .986-.313 1.335-.743.431-.527.932-1.547 4.632-5.239.768-.766 1.531-1.452 2.26-2.061-.668.902-1.352 1.962-1.604 2.801-1.159 3.871.72 4.567 1.613 4.567.92 0 2.995-.907 5.049-3.366-.102.741-.036 1.47.276 2.149.992 2.164 3.521 2.234 5.619 1.91 2.139-.331 4.567-1.195 6.848-2.204.052.154.117.3.198.437.729 1.242 1.477 1.789 3.38 1.789 1.852 0 3.696-.846 5.698-2.583 1.188-1.031 2.349-2.386 3.828-4.037.627-.7 1.23-1.413 1.88-2.157-.904 1.587-2.132 3.804-2.684 5.143-.936 2.266-1.425 3.924.509 3.924.646 0 .915-.11 1.092-.29.696-.707 1.498-1.652 2.58-2.742.595-.598 1.627-1.64 2.788-2.812-.285.49-.52.949-.658 1.331-.65 1.792-.597 3.028-.271 3.59.292.502 1.055 1.06 2.51.356.875-.425 2.782-1.635 4.982-3.808-.833 1.822-1.165 3.18-1.165 4.897 0 3.254 1.882 3.78 3.792 3.78 3.539 0 6.457-2.617 7.25-3.342l.007-.007c.509-.448 1.176-1.429 1.487-1.906.108-.165.01-.069-.073.029-1.178 1.382-2.484 2.206-2.844 2.419v-.02c.12-.096.346-.283.639-.542.286-.253.471-.428.566-.519l-.018-.022-.372.191-.383.161-.008-.023c.229-.185 1.082-.897 1.797-1.778.409-.505.736-.957.961-1.281l-.054.019c-2.128 2.297-4.946 4.892-7.679 4.892-1.577 0-1.904-1.871-.963-4.892.887-2.845 2.915-6.694 5.543-11.43l2.669-4.808h9.45s.376.061.971-.302.94-.816 1.221-.998c.282-.18.001-.3.001-.3zm-78.779 12.039c-.759 1.714-2.18 3.81-4.039 4.566-2.356.958-1.349-2.124-.793-3.18.845-1.603 2.299-3.155 4.252-3.976 1.697-.716 1.085 1.452.58 2.59zm21.064 4.976c-.845-.521-.43-2.778.846-4.445 1.527-1.996 3.477-3.391 4.462-3.288.798.083.846 1.118.846 1.118s-1.66 2.911-2.974 4.657c-1.317 1.746-2.335 2.479-3.18 1.958zm38.489-7.847l-.297.528c-2.572 4.091-6.455 7.84-7.33 7.372-.911-.487.004-2.596.423-3.266.418-.671 3.634-5.788 3.711-5.942.077-.154.484-.869.16-1.175 0 0-.119-.21-.763-.601-.728-.442-1.175-.38-1.473-.152-.298.226-1.089 1.129-2.661 2.748-1.302 1.342-2.835 2.705-4.231 4.051.927-1.407 2.177-3.428 2.603-4.137.495-.828.524-1.186.101-1.534-.423-.348-1.034-.496-1.487-.502-.302-.004-.577.023-.786.197-.91.755-2.964 3.337-4.383 4.885-1.62 1.768-3.309 3.326-5.143 4.535-.99.653-2.231 1.18-3.171.999-.681-.132-1.067-.533-1.124-1.259 1.677-.888 3.077-1.73 3.931-2.288 1.457-.953 4.07-2.938 3.798-5.052-.07-.55-.326-1.38-1.593-1.606-2.012-.359-4.334 1.133-6.448 3.039-1.481 1.334-2.945 3.693-3.309 5.704-1.246.507-2.446.862-3.861 1.139 1.716-2.246 3.27-5.376 4.503-7.72 1.632-3.102 3.363-6.358 3.986-7.528h29.267c-1.791 3.012-3.43 5.801-4.423 7.565zm-25.363 4.447c1.003-2.423 3.022-3.795 3.299-3.982.303-.203.998-.383.945.009-.247 1.049-2.301 2.743-4.244 3.973zm-59.643 4.813c.799-.696 2.515-2.43 3.125-5.842.535-2.996-1.181-4.749-1.636-5.052-.421-.294-.909-.25-1.108.009-.447.582-2.257 3.689-7.286 7.635-2.705 2.123-4.783 2.387-5.498 2.434-1.202.08-1.785-1.043-2-1.6 1.096-.537 2.226-1.131 3.283-1.763 2.546-1.523 3.996-3.031 4.245-3.516.638-1.24.244-3.241-1.723-3.515-1.112-.154-2.592.204-4.11 1.172-1.519.968-3.382 2.977-4.227 4.067-.559.719-1.443 2.119-1.481 3.609-1.554.617-2.958 1.006-4.039 1.032-.986.023-.669-1.112.061-2.313 1.335-2.196 3.117-4.082 5.544-6.864.297-.378.144-.88-.267-1.163-.246-.17-.649-.208-.971-.208-1.104 0-2.125.827-2.9 1.292-.775.464-.881.691-2.255.691 0 0 .317-.351.235-.895-.082-.544-.54-.998-1.726-.998s-2.736 1.542-2.736 2.268c0 .466-.014.823.649 1.29-1.36 1.893-2.998 3.562-4.827 5.047-.621.504-1.576 1.18-2.44 1.687-1.049.59-2.471.925-2.988.544-.517-.382-.241-1.589 1.106-3.364.92-1.213 2.753-2.801 3.581-3.527.827-.727 1.763-1.367 1.941-1.797.132-.318.236-.756-.008-1.077-.445-.588-1.383-.426-1.861-.311-.873.208-1.321.649-1.801.861-.722.318-1.81.35-2.288.248.587-.408.579-1.45-.271-1.541-.851-.09-2.143.317-3.14.952-.579.368-1.104.907-1.055 1.766.01.173.133.494.436.796-.3.276-.794.717-1.513 1.338-1.128.972-2.911 2.509-4.148 3.214 0 0 1.933-2.397 2.391-4.562.277-1.312.145-3.623-2.583-3.909-3.038-.317-4.948 1.739-9.676 5.745-4.647 3.941-15.406 11.431-21.245 7.454-5.839-3.979-.597-13.121 7.53-20.922 8.126-7.801 16.581-11.067 20.48-9.706 3.899 1.361 3.583 6.851-3.225 10.81-8.737 5.079-18.069 3.598-18.069 3.598s4.873 1.471 10.616.393c6.764-1.27 14.718-5.321 15.704-11.309.987-5.987-5.918-10.16-20.668-1.179-14.749 8.98-26.438 25.656-15.549 31.84 7.611 4.321 19.18-4.362 24.035-8.169-.43 1.598-.244 3.155 1.35 4.096.646.381 1.307.512 2.02.501 3.869-.06 7.401-2.908 9.331-4.387 1.973-1.511 5.067-4.118 5.08-4.128l.247.009c.275 0 .996-.049 1.643-.135-1.184 1.198-2.518 2.608-3.424 3.741-1.962 2.454-2.174 4.022-.249 4.838.503.214.916.302 2.109.302 2.511 0 5.155-1.514 7.083-2.925 2.266-1.658 4.428-3.879 6.096-6.199.272.038.573.062.914.072 0 0 .471 0 1.035-.047-.607.69-1.601 1.846-2.229 2.721-.955 1.33-1.754 2.434-1.754 3.492 0 1.059.356 2.575 2.692 2.599 1.338.013 3.38-.755 4.838-1.359.394-.164.895-.37 1.467-.614.245.599.928 1.575 2.829 2.172 2.706.849 6.556-.892 9.446-3.235 2.175-1.763 4.227-4.301 5.109-5.449.447 1.045.76 3.135-.99 5.381-1.448 1.858-1.971 1.127-2.217.884-.246-.241-.83-.221-1.09.333-.355.756.244 2.052 1.793 2.052 1.254-.003 2.562-.827 3.227-1.405zm-14.14-4.731c.846-1.655 2.089-2.823 3.124-3.485.94-.602 1.194-.469 1.292-.31.11.363.415 1.265-1.959 2.706-.859.521-1.741 1.029-2.622 1.504.043-.142.097-.281.165-.415zm-33.741-.016c-.751 1.27-1.754 2.434-2.834 3.069-1.08.635-1.986.373-2.317-.576-.438-1.254.501-3.038 1.112-3.946.611-.907 1.456-2.267 3.006-2.993 1.55-.727 2.255.022 2.356.521.211 1.045-.572 2.655-1.323 3.925z"/></svg>